<svg xmlns:dc="http://purl.org/dc/elements/1.1/" xmlns:cc="http://creativecommons.org/ns#" xmlns:rdf="http://www.w3.org/1999/02/22-rdf-syntax-ns#" xmlns:svg="http://www.w3.org/2000/svg" xmlns="http://www.w3.org/2000/svg" xmlns:sodipodi="http://sodipodi.sourceforge.net/DTD/sodipodi-0.dtd" xmlns:inkscape="http://www.inkscape.org/namespaces/inkscape" viewBox="0 0 80 80" version="1.1" x="0px" y="0px"><path style="" d="m 47.75,2.9375 c 0.433414,1.127333 -4.278375,3.3306225 -2.40625,3.375 -0.109899,2.3455088 -0.963915,0.444651 -2.15625,-1.46875 0.01368,1.950697 -2.980615,0.3327691 -2.03125,2 -0.824087,1.1016208 0.911849,1.1667602 0.25,2.5 2.249703,2.227287 -0.57582,1.518727 -1.75,0.09375 -0.392159,1.769025 -1.222682,0.2630969 -2.21875,0.9375 -0.185567,-1.6763572 -1.58384,-3.7419211 -2.125,-0.4375 -2.495484,1.193488 1.930414,2.610428 0,2.28125 -0.657455,3.00428 -2.059474,-3.6570581 -1.25,0.40625 -1.960875,-1.183458 -1.420661,0.697038 -1.03125,0.71875 0.0057,0.612114 -0.04174,2.899604 -0.71875,3.78125 1.75881,0.973978 -0.979046,2.897372 1.65625,3.5 1.0971,2.179934 1.648764,-0.727622 2.3125,0.25 -0.729495,-1.20142 1.654309,-0.927105 1.4375,0.1875 -2.045474,-0.786861 -0.298612,0.17342 -0.09375,1.375 1.428571,2.186701 -1.89135,1.203551 -1.5,2.3125 0.314172,-0.652749 -2.090853,3.588013 -0.0625,2.125 0.812484,2.019695 -3.856583,-0.06424 -2.03125,-1.96875 -0.0704,-3.20226 -2.138443,0.436547 -3.34375,-1.5 -1.360846,-0.268384 -1.531963,2.970005 -2.8125,0.09375 0.724604,-4.222094 -3.40034,0.992634 -3.0625,1.28125 4.069526,0.468705 -2.494201,2.273581 -0.375,3.5 -0.984746,-0.0048 -0.840799,1.57228 -0.15625,2.4375 -1.57112,0.343729 -0.107413,1.183984 0.0625,1.4375 1.467129,-0.299966 -0.207171,3.21225 -0.40625,2.1875 -0.172794,-2.516475 -1.548725,-0.710875 -2.25,-0.6875 -0.09394,2.257931 -2.1722,0.239139 -1.375,2.15625 0.372985,-1.843773 1.616646,0.515799 0.28125,0.28125 1.039969,0.557457 -1.600661,0.481457 -1.9375,3.15625 -3.390602,-0.04809 1.175187,6.212051 1.6875,5.3125 1.172602,3.142745 0.1389,-2.238545 1.96875,-0.84375 0.21003,-1.879353 0.868345,2.041631 0.6875,0 2.233301,0.830951 -2.113118,1.894053 0.78125,1.6875 -0.926819,1.831735 -0.670763,1.322294 -1.71875,1.71875 -2.847671,1.649537 4.032808,1.819805 1.6875,4.21875 0.669199,2.649452 -2.710806,3.24397 -2,-0.09375 -1.470306,0.923542 0.999771,3.352605 -0.71875,3.65625 0.959157,-1.872577 -0.804341,0.47634 -0.28125,0.6875 -0.686101,0.294572 -1.80137,0.88972 -1.53125,0.25 0.600906,-3.878103 -1.362264,1.025792 0.03125,0.75 -2.685588,1.210712 -2.709545,1.036125 -3.09375,4.0625 0.76823,0.6847 0.496625,1.32413 0.5,2.03125 -0.187665,0.694515 0.966631,2.030436 2.40625,1.125 0.0266,-0.809884 3.092804,-0.09747 0.6875,0.125 1.781989,0.02032 0.788007,2.134257 1.25,3.3125 0.829435,-0.252601 0.834284,-1.128417 0.8125,-1.71875 0.0384,0.163921 -0.401246,0.549076 -0.25,-0.03125 0.152287,-0.03099 0.237201,-0.02339 0.25,0.03125 -0.01924,-0.521333 -0.03722,-0.818023 0.53125,-0.28125 0.64124,-1.76868 1.186125,2.364264 1.25,0.03125 1.126365,1.45359 -0.236554,-1.436866 1.1875,0.46875 -0.61438,-1.753043 0.321076,0.18083 0.46875,-0.09375 -1.374806,1.232539 -1.333405,0.01853 -1.5625,1.25 -1.604308,2.515249 2.09315,1.123429 2.1875,2.21875 -0.445652,2.820695 2.231358,0.480118 1.75,2.3125 1.930693,-0.08169 1.07191,-1.891702 1.78125,-3.53125 -2.690228,2.536079 1.369507,-2.688462 -0.96875,-0.4375 0.476613,-1.848429 0.96063,0.0049 1.53125,-1.21875 -1.320508,-0.496355 0.873018,0.489917 1.1875,-1.25 0.233663,0.674934 2.264583,1.705017 2.3125,-0.8125 2.864895,0.336895 0.725105,3.262935 3.46875,2.96875 0.743489,2.101381 -0.852989,-0.311741 -0.71875,1.5625 -2.582566,-0.593491 -1.901661,0.581501 -1.71875,2.25 0.988351,0.491904 2.891832,0.426206 1.125,1.46875 1.724356,1.746875 2.970879,-1.200331 5.46875,0.1875 0.538186,-0.629249 0.895681,-0.939957 1.40625,1.03125 -2.092729,-1.507162 -1.194863,1.146061 -2.03125,2.59375 l 0.375,1 c 0.445267,-0.126591 -0.264574,-1.488128 1,-0.75 1.051988,2.503065 1.860026,-1.409681 0.71875,-0.875 -2.174172,-0.857962 2.402296,-2.880186 1.34375,0.59375 1.054153,0.481694 -1.054353,0.906976 -1.625,3.0625 1.981812,-1.424439 1.101475,-0.09969 1.15625,1.8125 -0.0749,0.552633 -0.266268,1.396158 -0.6875,1.65625 0.123519,1.204789 0.555332,5.716813 0.65625,8.625 0.760238,0.198753 2.236846,1.085356 0.0625,0.59375 -0.0199,0.04943 -0.01373,0.07838 -0.03125,0.125 0.0073,0.807574 -0.04006,1.39605 -0.15625,1.46875 -0.0052,0.0032 0.0055,0.02988 0,0.03125 0.253359,0.419048 0.78911,0.42813 0.1875,1.46875 -0.698319,0.828518 -0.111389,3.380792 0,3.90625 0.802061,0.353578 2.334045,0.350184 2.850089,0.05376 0.774266,-2.053726 -0.0754,-3.750798 0.03125,-5.40625 -0.153323,-0.805432 -0.07057,-1.235718 0.15625,-1.4375 l 0.25,-2.28125 c -0.305611,-0.64284 -0.197188,-1.76089 0.25,-2.3125 L 46.65625,79.65625 c -0.620469,-0.343086 -0.165184,-1.166142 0.25,-2.09375 l 0.09375,-1 0.3125,-0.21875 c 0.119268,-0.580849 0.06034,-1.138279 -0.46875,-1.5625 2.395201,-0.655123 2.438397,-1.119619 3.96875,-1.3125 -0.458973,-1.496045 1.134191,-0.193809 1.875,-1.40625 0.0824,0.732409 1.612341,0.06087 1.3125,-1.15625 2.077985,-0.722436 1.857712,-2.710551 3.34375,-2.84375 1.872773,-1.383516 -2.13647,-3.296511 -1.46875,-1.34375 -1.751554,-0.474475 -0.08088,1.475004 -1.5,1.0625 1.738259,1.559373 -1.011006,-0.667177 -0.0625,0.84375 -1.053524,-1.490594 -0.07723,-1.660846 0.5625,-2.28125 1.902785,-0.91952 -2.427411,-1.444575 -0.125,-1.5625 2.819455,1.458137 -0.809462,-0.737505 -0.84375,-0.5 -1.825766,-1.218412 -0.05872,-0.255344 -1.1875,-1.8125 -1.445735,2.30045 -0.756961,-2.610989 0.9375,-0.625 0.490035,-1.296247 1.295563,-0.749963 3.28125,-0.6875 0.813706,-0.98205 5.058583,-3.637167 3.9375,-2.3125 1.856169,1.709275 2.389646,0.3986 3.1875,-0.53125 -0.352282,-1.703866 2.237786,-2.239454 2.90625,-0.28125 0.551559,-1.894782 0.830988,1.045114 0,0 0.05282,0.154718 0.09884,0.344893 0.125,0.53125 -2.257423,-0.461125 0.34696,0.985086 1.25,0.25 -0.811964,1.19989 1.325843,3.30123 1.1875,1.0625 0.264355,1.61786 2.170029,2.19035 1.96875,0 1.10317,2.481865 0.805995,-2.400625 -0.03125,-0.34375 -2.178443,-2.147282 1.342154,-0.174048 1.15625,-1.25 1.34552,1.350995 -0.910295,0.31119 0.1875,1.78125 0.59717,-1.84238 3.677994,1.193864 1.59375,0.1875 0.190433,1.683429 1.281664,0.348463 1.59375,0.40625 0.24362,-2.189356 3.244099,-2.34764 2.28125,-3.8125 -0.298792,1.132207 -0.915842,0.01736 -1.6875,-1.09375 1.09322,-1.136349 2.15485,-2.966594 2.96875,-5.625 1.333541,-0.935395 1.859956,-1.759689 1.125,-3.375 -1.492568,0.282964 0.537355,-0.86467 -0.34375,-1.53125 -1.601741,0.332639 -0.140165,-1.146204 -1.21875,-2.4375 -2.947073,1.585216 -0.785705,3.460006 0.625,5.3125 -2.585031,0.313624 -0.632359,-1.365324 -2.5,-0.96875 0.807329,-1.83764 -2.299226,-2.828045 -2.5625,-0.71875 0.314017,3.08743 -3.949144,0.738985 -3.0625,2 -0.69152,-0.24636 -2.563587,1.900809 -2.75,0.90625 -1.29434,2.293594 -1.842854,0.293703 0.1875,-0.3125 -0.08512,-0.230564 -0.09607,-0.363818 -0.125,-0.5 0.09559,-0.05804 0.129608,-0.227639 -0.0625,-0.21875 0.0016,0.04917 0.01639,0.147431 0.03125,0.21875 -0.06364,0.02326 -0.139029,-0.01272 -0.15625,-0.21875 0.05671,-0.01916 0.08841,0.0017 0.125,0 -0.02719,-0.841266 1.753523,1.317973 1.1875,-0.71875 1.474375,1.273709 1.441177,-1.759726 2.90625,-2.40625 -1.419446,-0.366869 -0.295359,-0.420321 -0.53125,-1.125 0.988883,1.84102 3.340158,-2.316915 1.65625,-2.125 1.399559,-1.100438 1.965731,-3.787243 -0.53125,-3.9375 -3.657856,-0.107515 1.703606,-1.998466 -0.625,-3.34375 -3.208416,-0.92021 1.947491,-2.756255 0.6875,-1.75 -1.242128,3.195286 2.737379,-1.570696 0.1875,-1.03125 1.854218,-0.741376 -0.381844,-2.608191 -1.75,-2.84375 -2.720095,-1.587676 -0.748119,1.99121 -2.5,1.40625 0.434335,3.061673 -1.78099,-2.571661 -2.5625,-0.375 -0.315645,2.165826 -0.265781,1.545269 -0.90625,-0.3125 -0.145183,-0.75348 -1.226854,-1.62072 -2.125,-1.21875 -0.222753,-2.174898 -1.323006,-2.99311 -2.90625,-1.75 -0.636654,0.835737 -0.983018,-1.159495 -2.1875,-0.03125 -0.910258,-1.596624 0.468412,0.231578 -0.25,-1.78125 1.073152,-0.240149 2.185035,1.066049 2.84375,-1.40625 -2.01024,0.345544 0.193001,-5.064636 -2.25,-3.5 1.037798,-2.557439 -1.186361,-3.403165 -1.40625,-5.15625 0.965537,-1.250081 0.243488,-1.839123 0.09375,-2.59375 -1.91759,1.54872 0.464515,-1.174489 -0.71875,-1.90625 -1.116231,-1.6882719 -0.219046,2.199841 -1.5625,0.28125 0.51227,1.163197 -0.895575,0.71513 -0.9375,0.84375 -1.669399,-1.101607 -0.680461,1.233422 -1.28125,0.53125 0.05039,0.135694 -2.631204,1.767494 -1.375,-0.375 C 51.73063,11.795499 52.847055,9.4132815 51.375,9.25 50.379061,7.4006317 50.037321,3.827508 47.75,2.9375 z m -4.28125,96.03125 c -0.01063,-0.0047 -0.02046,0.0049 -0.03125,0 0.05295,0.171043 0.05836,0.127897 0.03125,0 z m -19.125,-66.8125 c -0.06685,0.01367 -0.138312,0.03218 -0.21875,0.0625 0.236928,0.03798 0.264599,0.0059 0.21875,-0.0625 z m 23.875,-27.75 c 1.716636,0.2202279 -0.584682,2.6921719 0,0 z M 47,6.3125 c 0.600979,0.01863 -0.169506,0.5886983 0,0 z m 2.40625,1.5625 c 0.725405,0.1116568 -0.555746,1.4689239 -0.4375,0.03125 0.195765,-0.047135 0.333871,-0.047201 0.4375,-0.03125 z M 42.6875,8.84375 c 1.790402,0.056274 -0.97753,1.390139 0,0 z m 2.21875,0.09375 c 1.343029,-0.2665997 0.16282,3.106264 -0.71875,0.34375 0.304055,-0.2162247 0.526889,-0.3056643 0.71875,-0.34375 z m 4.46875,0.5 c 0.767716,0.0028 -0.172659,0.823107 0,0 z m -6.9375,0.34375 c 1.723,0.238593 -0.481437,0.78532 0,0 z m 3.65625,0.78125 c 0.617958,-0.118231 -0.216719,0.771252 0,0 z m -0.1875,0.53125 c 0.532626,0.03661 0.491155,1.196578 -0.25,0.0625 0.09981,-0.05061 0.173911,-0.06773 0.25,-0.0625 z m 1.6875,0.3125 c 0.368844,-0.01926 0.729958,1.225587 -0.375,1.0625 0.0206,-0.776599 0.207343,-1.053745 0.375,-1.0625 z m 1.375,0.28125 c 1.02582,2.070032 -0.339326,0.422452 0,0 z M 48.25,12.375 c 0.705621,-0.05927 -0.09071,0.875921 0,0 z m -11.59375,0.0625 c 1.133954,0.123456 -0.491712,3.250565 -0.25,0.03125 0.101642,-0.02111 0.174403,-0.03948 0.25,-0.03125 z m 13.5,0.59375 c 0.648003,-0.03574 -0.107375,0.64174 0,0 z m 5.375,0.0625 c 0.364672,0.133441 -0.672183,1.559649 -0.25,0.03125 0.117663,-0.04624 0.197904,-0.05031 0.25,-0.03125 z M 51.25,13.125 c 0.385918,-0.07294 0.979355,1.979155 -0.21875,0.46875 0.04089,-0.31164 0.129692,-0.451918 0.21875,-0.46875 z m -1.5625,0.125 c 1.832171,0.6016 0.209857,1.718322 1.96875,1.875 -0.374691,0.151928 1.753801,1.096753 0.8125,1.96875 0.23322,2.914826 -0.835196,-2.184644 -1.15625,0.21875 0.426706,-1.88077 -2.841425,-2.390119 -1.625,-4.0625 z m -2.5,0.78125 c 0.851949,0.955471 0.617846,1.116762 0,0 z m -9.84375,0.78125 c 0.32539,1.357789 -0.307588,1.304581 0,0 z m 16.78125,0 c 1.492973,0.46667 -0.409936,0.848244 0,0 z m -16.71875,1.03125 c 0.303046,0.0015 -0.264752,0.527434 -0.1875,0.03125 0.08326,-0.02595 0.144208,-0.03146 0.1875,-0.03125 z m 2.125,0.0625 c 1.087909,1.697235 -1.320474,1.013606 0,0 z M 38.09375,17.25 c 0.921715,-0.182657 -0.23351,1.071398 -0.53125,0.1875 0.224976,-0.09462 0.399576,-0.161406 0.53125,-0.1875 z m 19.3125,0.21875 c 0.05232,0.03375 0.0042,0.42499 -0.3125,1.0625 0.107456,-0.77252 0.260178,-1.096252 0.3125,-1.0625 z M 41.375,17.5625 c 0.167271,-0.01781 0.165837,0.571995 -0.40625,0.875 0.157014,-0.626765 0.305887,-0.864312 0.40625,-0.875 z m 13.0625,0.0625 c 0.314171,0.03387 -0.17117,0.611978 -0.1875,0.03125 0.0812,-0.02197 0.142618,-0.03609 0.1875,-0.03125 z m -17.875,0.0625 c 1.437342,0.944878 0.910476,1.532515 0,0 z M 54.96875,17.75 c 0.763593,0.16387 -0.584226,0.504719 0,0 z m -1.78125,0.03125 c 0.409245,0.502455 -0.799345,0.410354 0,0 z m 1.21875,0.6875 c 1.066348,-0.114829 -0.14921,0.801904 0,0 z m 2.1875,0.21875 c 0.628271,0.275085 -0.799166,0.508385 0,0 z m -0.4375,0.71875 c 0.475275,0.612044 -0.459979,0.717085 0,0 z m -2.625,0.96875 c 0.590988,-0.103813 -0.1038,0.590993 0,0 z M 38.4375,20.65625 c 1.117007,0.759275 0.6801,1.044708 0,0 z m 16.5,0.625 c 0.432044,0.08154 -0.205102,0.987937 -0.25,0.03125 0.110478,-0.02946 0.188279,-0.0429 0.25,-0.03125 z m -16.78125,0.125 c 0.674787,0.06188 -0.409051,0.67411 0,0 z m 0.8125,0 c 0.476135,0.04001 0.487671,0.963832 -0.59375,0.34375 0.245672,-0.273363 0.435038,-0.357086 0.59375,-0.34375 z M 55.3125,21.625 c 0.215102,0.02608 0.118049,0.449026 -0.46875,0.6875 0.70342,1.008273 0.252015,1.138714 0,0 -0.0038,-0.0055 -0.02736,0.0055 -0.03125,0 -0.105917,0.04093 -0.205464,0.101178 -0.34375,0.125 0.387956,-0.644089 0.690106,-0.83113 0.84375,-0.8125 z m -17.625,0.53125 c 0.663698,0.01866 -0.175742,0.649625 0,0 z m 18.34375,0.125 c 0.484705,0.361096 -0.483734,0.37091 0,0 z M 55.21875,22.5 c 0.598121,0.03099 -0.167486,0.577884 0,0 z M 59.25,23 c 0.220778,0.644246 -0.984887,0.09254 0,0 z m -3.09375,0.25 c 0.588451,0.02354 -0.160245,0.583381 0,0 z m 1.875,0.6875 c 1.881811,0.03892 -0.994772,1.4967 0,0 z m 1.125,0.5625 c 0.589615,0.24925 -0.392146,0.536825 0,0 z M 56,24.5625 C 56.512907,24.355849 55.457449,25.761865 55.65625,24.75 55.800782,24.642327 55.926728,24.592022 56,24.5625 z m -18.90625,0.53125 c 2.005202,0.373936 -0.736097,2.104627 0,0 z m -8.3125,0.375 c 1.611829,0.412299 0.528977,1.292105 0,0 z m 26.3125,0 c 0.61796,-0.118237 -0.216716,0.77125 0,0 z m -26.8125,0.0625 c 0.553668,-0.07953 -0.02676,1.023137 -0.96875,0.5625 0.460968,-0.397288 0.784194,-0.535991 0.96875,-0.5625 z M 47.25,25.84375 c 1.681726,0.433596 -1.157356,1.795001 0,0 z m 8.90625,0.125 c 0.461462,0.350089 -0.459047,0.376501 0,0 z M 36.59375,26 c 0.705404,0.0084 -0.13778,0.755856 0,0 z m 15.625,0.625 c 1.161259,2.16342 -2.403259,2.192949 0,0 z m 1.34375,0.0625 c 0.972524,0.05975 -0.03644,2.237114 -1,0.375 0.462758,-0.28704 0.775571,-0.388789 1,-0.375 z m -5.90625,0.65625 c 0.282027,0.0262 -0.129103,0.554518 -0.15625,0.03125 0.07223,-0.02092 0.11596,-0.03499 0.15625,-0.03125 z M 54.75,27.625 c 0.588436,0.02354 -0.16024,0.583375 0,0 z m 7.65625,0.1875 c 0.590989,-0.103813 -0.1038,0.590996 0,0 z M 38.5,28.34375 c 1.476656,-0.0372 -0.648009,0.995375 0,0 z m -11.3125,1.0625 c 1.039895,-0.115982 2.275281,1.744947 -0.8125,0.9375 0.133268,-0.654772 0.465868,-0.898839 0.8125,-0.9375 z m 34.90625,0 c 2.523826,0.190235 -0.967051,1.685358 0,0 z M 72.125,29.5625 c 2.652554,1.55172 0.18055,1.558824 0,0 z m -46.5625,0.21875 c 0.04463,0.0022 0.01959,0.200122 -0.25,0.8125 -0.119694,-0.254267 0.175623,-0.816195 0.25,-0.8125 z m 26,0.6875 c 0.927966,0.06862 1.193716,2.900768 -0.71875,1.6875 0.695253,0.735113 -0.759453,1.146227 -0.46875,-0.375 0.43021,-1.004342 0.854963,-1.337091 1.1875,-1.3125 z m 13.90625,0.375 c 0.33936,0.0065 -0.204311,0.74195 -0.1875,0.0625 0.08954,-0.03437 0.13902,-0.06342 0.1875,-0.0625 z m -15.625,0.25 c 0.263438,-0.118023 0.760266,0.828532 -0.125,0.5625 -0.02348,-0.357613 0.03719,-0.523159 0.125,-0.5625 z m 3.3125,0.15625 c 0.562258,-0.179178 0.1692,1.333158 -0.3125,0.1875 0.121316,-0.107595 0.232177,-0.161903 0.3125,-0.1875 z m 17,0.09375 c 2.628021,0.614685 -0.148517,2.693495 0,0 z M 55.21875,32.125 c 0.833259,-0.02969 -0.24487,0.722103 0,0 z m 10.875,0.125 c 0.634102,-0.185118 1.302945,1.546791 -0.40625,0.5 0.112584,-0.303345 0.259919,-0.45728 0.40625,-0.5 z M 65.375,32.65625 c 0.676264,0.07454 -0.490813,0.72488 0,0 z m -9.71875,0.28125 c 1.016392,0.188486 0.55385,0.799274 0.15625,0.90625 0.279779,0.252759 -0.320199,1.358061 -0.84375,0.3125 0.260047,-0.214529 0.453209,-0.311566 0.59375,-0.34375 -0.140037,-0.0825 -0.175215,-0.334743 0.09375,-0.875 z m -0.09375,0.875 c 0.06446,0.03797 0.158789,0.05579 0.25,0.03125 -0.04915,-0.0444 -0.142528,-0.05586 -0.25,-0.03125 z M 30.5,32.96875 C 30.933109,32.91436 30.68208,35.418864 30.09375,33.5 30.271977,33.12893 30.400052,32.981301 30.5,32.96875 z m 31.90625,0 c 0.743054,-0.104525 -0.134605,0.628691 0,0 z M 31.125,33.125 c 0.285017,0.02571 -0.139953,0.557103 -0.15625,0.03125 0.07359,-0.02119 0.115533,-0.03492 0.15625,-0.03125 z m 31.1875,0.125 c 0.151299,0.03495 0.06985,0.29864 -0.71875,0.6875 0.183407,-0.528681 0.567451,-0.722455 0.71875,-0.6875 z m 0.53125,0 c 0.26327,0.03524 -0.326877,0.60024 -0.1875,0.03125 0.07617,-0.02099 0.14989,-0.03628 0.1875,-0.03125 z m -13.6875,0.09375 c 2.299234,0.979381 -0.857128,0.612368 0,0 z m 14.09375,0 c 1.682515,0.142975 0.946867,0.86699 0,0 z m -0.09375,0.125 c 0.04136,0.03324 -0.150204,0.345877 -0.6875,0.875 0.371858,-0.662092 0.64614,-0.908242 0.6875,-0.875 z M 66.625,33.5625 c -0.521964,1.20695 0.531113,2.266633 -0.65625,2.40625 -0.377206,-0.834483 -0.03295,-1.850372 0.65625,-2.40625 z M 46,33.9375 c 0.445159,-0.159414 -0.579714,1.228756 -0.28125,0.15625 C 45.850872,33.995198 45.936406,33.960273 46,33.9375 z M 60.125,34 c 0.282027,0.02619 -0.160353,0.554519 -0.1875,0.03125 0.07223,-0.02092 0.14721,-0.03499 0.1875,-0.03125 z m 3.0625,0 c 1.586691,0.304161 -0.62049,1.424055 0,0 z m -12.375,0.25 0.5625,0.21875 0.40625,0.4375 C 54.800446,36.436906 50.61126,35.896171 50.8125,34.25 z M 34.75,34.46875 c 0.510266,0.04778 -0.461889,1.387663 -0.3125,0.0625 0.141221,-0.05783 0.239605,-0.06932 0.3125,-0.0625 z M 72,34.65625 c 0.794625,0.0564 -0.333558,0.608944 0,0 z M 29.40625,35.0625 c 1.269359,-0.02416 -0.09518,0.89933 0,0 z m 19.125,0.125 c 0.72289,0.815308 0.126225,1.449437 0,0 z M 47.625,35.53125 c 0.39859,0.55852 -0.836825,0.129149 0,0 z m 2.84375,0 c 0.366514,0.04275 -0.263058,0.589684 -0.21875,0.03125 0.09809,-0.01846 0.166391,-0.03736 0.21875,-0.03125 z m 6.71875,0.4375 c 0.408864,-0.02155 0.106688,1.389549 -0.65625,0.625 0.303016,-0.463062 0.519962,-0.617816 0.65625,-0.625 z m -6.75,0.09375 c 1.83459,0.570189 -1.236103,1.287005 0,0 z m 7.59375,0.25 c 1.264331,0.212425 -1.108497,1.327459 0,0 z m -20,0.03125 c 0.590993,-0.103812 -0.1038,0.590995 0,0 z M 41.8125,36.5 c 0.600985,0.01861 -0.169508,0.588719 0,0 z m -12.46875,0.03125 c 0.472776,-0.0013 0.144474,1.796916 -0.25,0.125 0.102569,-0.08906 0.182461,-0.124809 0.25,-0.125 z M 21.375,36.6875 c 0.26435,0.05536 -0.247075,0.548371 -0.15625,0.03125 0.07387,-0.01298 0.118486,-0.03916 0.15625,-0.03125 z m 22.8125,0 c 0.277245,0.03161 0.1879,1.152506 -0.40625,0.4375 0.423365,0.955716 -0.523542,0.653902 -0.21875,-0.375 0.09559,0.153834 0.167654,0.259655 0.21875,0.375 0.16275,-0.341019 0.313835,-0.448038 0.40625,-0.4375 z m 6.75,0.0625 c 1.248896,0.392664 -0.778925,1.006776 0,0 z m 8.15625,0.03125 c 1.021514,0.191919 -0.198224,0.911921 0,0 z m 0.96875,0 c 0.701544,-0.0455 -0.1234,0.870368 0,0 z m -5.09375,0.125 c 1.095011,0.732462 -0.966763,1.574055 0,0 z m -4.75,0.03125 c 0.622224,0.0678 -0.501464,0.654573 0,0 z m 6.40625,0 c 0.346903,0.06565 -0.377121,0.794106 -0.21875,0.03125 0.09902,-0.02333 0.169192,-0.04063 0.21875,-0.03125 z m -17.53125,0.03125 c 0.742287,-0.135186 -0.18946,0.753911 0,0 z m 18.375,0 c 0.442509,-0.08945 0.858146,1.125696 -0.09375,1.40625 1.699864,-0.0071 -0.456648,1.382978 0,0 -0.119489,0.03522 -0.240594,0.06177 -0.40625,0.0625 0.0516,-1.042063 0.273611,-1.422988 0.5,-1.46875 z m 1.375,0.15625 c 0.314174,0.03387 -0.171181,0.611982 -0.1875,0.03125 0.0812,-0.02197 0.142618,-0.03609 0.1875,-0.03125 z M 41.4375,37.15625 c 0.340456,0.496008 -0.58183,0.170493 0,0 z m 21.875,0 c 0.323105,-0.01758 0.307867,0.350978 0.1875,0.5625 0.946639,0.250214 -0.406465,0.765207 -0.96875,1.375 2.641579,-0.782148 -1.43309,1.56613 -0.21875,0.25 -1.446192,-0.49236 1.465225,-0.941825 0.9375,-1.5 0.104735,0.05589 0.18883,-0.0175 0.25,-0.125 -0.103188,-0.02728 -0.243621,-0.07366 -0.40625,-0.09375 0.01262,0.02335 0.0186,0.07457 0.03125,0.09375 -0.07927,-0.04566 -0.178836,-0.07805 -0.3125,-0.125 0.12199,0.0093 0.183229,0.01914 0.28125,0.03125 -0.04837,-0.08949 -0.111055,-0.184652 -0.15625,-0.34375 0.14764,-0.08369 0.282684,-0.119978 0.375,-0.125 z M 53.09375,37.1875 c 0.272173,-0.01813 0.392825,0.415185 0.3125,0.5625 1.404756,0.135298 -0.926687,2.090835 0,0 -0.06024,0.110486 -0.251327,0.04289 -0.5625,-0.46875 0.0859,-0.07163 0.181957,-0.08922 0.25,-0.09375 z m 2.71875,0.28125 c 2.560895,0.358742 -0.226864,2.629843 -0.40625,0.75 1.850686,-0.601515 -0.736314,-0.23146 0.40625,-0.75 z M 58.5,37.6875 c 0.743052,-0.104525 -0.134605,0.628691 0,0 z m 3.1875,0.0625 c 0.579168,0.180649 -0.339314,0.486649 0,0 z m -24.84375,0.09375 c 0.552707,0.09286 -0.368179,0.456945 0,0 z m 22.0625,0.125 c 0.121596,0.01604 0.07323,0.216565 -0.34375,0.59375 1.488118,0.495189 -0.203355,0.99065 0,0 C 58.423506,38.688228 58.229236,38.838154 58,39 c 0.268431,-0.732927 0.744122,-1.052636 0.90625,-1.03125 z m -6.28125,0.125 c 0.884449,-0.176786 -0.657459,2.851077 -0.875,0.75 1.245734,1.188116 0.444539,-0.606254 0.03125,-0.71875 l 0.625,0.0625 c 0.08156,-0.04261 0.159787,-0.08196 0.21875,-0.09375 z m -26.09375,0.1875 c 2.107845,0.0482 -0.804274,1.196204 0,0 z m 1.125,0 c 2.826174,-0.161881 -0.850919,1.309966 0,0 z M 64.125,38.625 c 0.675885,-0.01789 -0.07886,0.643266 0,0 z m -9.5625,0.03125 c 0.401667,0.145715 -0.529556,1.558896 -0.25,0.03125 0.119759,-0.04299 0.192619,-0.05207 0.25,-0.03125 z M 54.03125,38.75 c 0.47989,0.437681 -0.508899,0.414574 0,0 z m 6.25,0.03125 c 0.280417,0.01681 -0.111603,0.565388 -0.15625,0.03125 0.07088,-0.02395 0.11619,-0.03365 0.15625,-0.03125 z m -5.3125,0.03125 c 1.332923,0.312165 -0.294064,2.812271 0,0 z M 27.1875,38.84375 c 1.626035,-0.05297 2.43402,0.708526 4.03125,0.3125 -0.462643,1.743398 1.207742,1.466216 0.75,2.3125 -2.379153,-0.263569 1.105754,1.88645 -0.9375,2 -2.627574,0.951211 1.142651,-2.746274 -0.8125,-2.34375 1.050606,-2.227011 -3.333785,0.291396 -3.78125,-2.1875 0.271521,-0.0461 0.517709,-0.08618 0.75,-0.09375 z m 25.75,0.03125 c 0.663686,0.01865 -0.175728,0.649626 0,0 z m -2.5625,0.03125 c 0.415598,-0.02519 1.001304,1.763371 -0.21875,0.375 0.05632,-0.25929 0.122843,-0.369186 0.21875,-0.375 z M 60.625,39 c 0.663686,0.01866 -0.175731,0.64962 0,0 z m -39.40625,0.28125 c 0.558301,0.201056 -0.395133,0.698706 0,0 z m 33.125,0.125 c 1.271138,-0.165678 0.04644,1.50545 0,0 z m 5.90625,0 c 1.000971,-0.09354 0.106538,0.89541 0,0 z M 58.03125,39.5 c 1.008305,0.351784 -1.397259,1.107979 0,0 z m 3.15625,0.25 c 0.443912,0.01225 0.468442,0.229062 0.34375,0.375 0.547231,-0.101734 0.04557,1.840872 -0.53125,0.625 0.11712,0.619292 -1.356155,0.54225 -0.40625,-0.53125 0.161498,0.142802 0.285115,0.263358 0.34375,0.375 0.135765,-0.169073 0.245674,-0.267451 0.34375,-0.34375 -0.142144,0.02956 -0.255919,-0.07589 -0.09375,-0.5 z m 11.75,0.09375 c 0.297165,-0.0069 0.193071,1.078328 -0.4375,0.46875 0.177977,-0.351001 0.338445,-0.466435 0.4375,-0.46875 z m -14.03125,0.0625 c 1.14381,-0.06312 -0.05982,0.838909 0,0 z M 53.1875,39.9375 c 0.754246,0.192117 0.529986,0.946549 0.65625,1.46875 -1.472861,-1.412692 -0.529247,0.493955 -0.53125,0.71875 -0.0468,-0.02193 -0.180787,-0.171313 -0.4375,-0.53125 -1.482324,0.729238 0.519959,-1.495753 0.3125,-1.65625 z M 52.5,40 c 0.0534,-0.02412 0.02141,0.08045 -0.09375,0.46875 -0.120039,3.29572 -2.814016,-1.3842 -1.03125,0.875 C 51.597814,41.482381 52.339798,40.072369 52.5,40 z m 1.78125,0.15625 0.46875,0.125 c 1.022264,0.567607 -1.234573,2.263964 -0.46875,-0.125 z M 55.4375,40.375 c 0.579166,0.18065 -0.339314,0.486648 0,0 z m 4.5,0.28125 c 0.58059,0.339745 -0.66962,0.480687 0,0 z m -34.59375,0.25 c 1.737746,-0.08958 1.384474,2.90528 0,0 z m 18.0625,0.3125 c 0.63399,0.02035 -0.298866,0.6777 0,0 z m 16.5,0.09375 c 0.283337,0.02791 -0.166905,0.54613 -0.1875,0.03125 0.07292,-0.02003 0.147023,-0.03524 0.1875,-0.03125 z M 21.625,41.34375 c 1.207912,1.132756 0.509018,1.491027 0,0 z m 22.75,0 c 0.179037,-0.111949 0.14167,0.230048 -0.46875,0.75 0.163252,-0.450513 0.361328,-0.682831 0.46875,-0.75 z m 25.84375,0 c 0.73109,1.118385 0.357839,1.249999 0,0 z m -11,0.0625 c 0.314171,0.03387 -0.171159,0.611978 -0.1875,0.03125 0.0812,-0.02197 0.142618,-0.03609 0.1875,-0.03125 z M 69.5,41.46875 c 0.600949,0.01864 -0.169476,0.588689 0,0 z M 58.625,41.5625 c 0.491381,0.458987 -0.799067,0.334404 0,0 z m 1.46875,0 c 0.246696,0.0738 0.258844,0.834328 -0.5625,0.90625 0.175162,-0.748048 0.414482,-0.950532 0.5625,-0.90625 z m -16.5,0.09375 c 0.157453,-0.07808 0.390722,0.219461 0.21875,1.125 -0.457841,-0.593211 -0.376203,-1.046918 -0.21875,-1.125 z m 2.375,0.09375 c 0.469418,-0.0481 -0.08731,2.117401 -0.25,0.15625 0.113991,-0.116627 0.18294,-0.149378 0.25,-0.15625 z m 1.40625,0 c 1.106164,0.670754 -0.584793,1.277479 0,0 z M 44.5,42 c 0.315712,0.05448 -0.355955,0.686286 -0.1875,0.03125 C 44.40391,42.010724 44.454898,41.992217 44.5,42 z m 12.53125,0.21875 c 0.358757,-0.153723 0.544113,2.263183 -0.6875,1.625 l 0.3125,-0.40625 c 0.105823,-0.832816 0.255414,-1.167509 0.375,-1.21875 z m 7.78125,0.0625 c 0.598121,0.03099 -0.167486,0.577881 0,0 z m 4.6875,0.0625 c 2.307969,0.04274 0.883741,2.109617 -0.5,0.03125 0.188277,-0.01687 0.346135,-0.0341 0.5,-0.03125 z m -27.15625,0.0625 c 0.748844,-5.52e-4 -0.710603,1.294525 -0.46875,0.09375 0.20845,-0.06386 0.361772,-0.09367 0.46875,-0.09375 z m 26.28125,0 c 0.454178,-0.09447 0.764481,1.556312 -0.3125,0.40625 0.106402,-0.262569 0.20769,-0.384448 0.3125,-0.40625 z M 50.78125,42.5 c 0.283336,0.02791 -0.135633,0.546126 -0.15625,0.03125 0.07292,-0.02003 0.115773,-0.03524 0.15625,-0.03125 z M 25.375,42.59375 c 0.353592,0.05322 -0.3429,0.776124 -0.21875,0.03125 0.09895,-0.02562 0.168237,-0.03885 0.21875,-0.03125 z m 46.375,0.3125 c 0.600997,0.01863 -0.169524,0.588707 0,0 z m -3.5625,0.03125 c 0.303045,0.0015 -0.264752,0.527434 -0.1875,0.03125 0.08326,-0.02595 0.144208,-0.03146 0.1875,-0.03125 z M 39.3125,43 C 39.829513,43.000713 38.894825,44.104756 39,43.09375 39.140642,43.040291 39.238641,42.999898 39.3125,43 z m -1.03125,0.125 c 0.36214,-0.0944 0.519605,0.524257 0.28125,0.6875 1.132975,0.742976 1.878007,3.690443 0.28125,2.84375 1.4484,-1.652564 -2.053971,-1.259016 -1.0625,-2.96875 0.08175,-0.0359 0.137275,-0.05691 0.21875,-0.0625 -0.05313,-0.03723 -0.09599,-0.04301 -0.15625,-0.09375 0.161295,-0.257874 0.310596,-0.37317 0.4375,-0.40625 z m 0.28125,0.6875 c -0.16504,-0.108229 -0.355415,-0.191446 -0.53125,-0.1875 0.270875,0.183926 0.429941,0.256884 0.53125,0.1875 z m 2.71875,-0.6875 c 0.511331,0.03058 0.0511,0.496758 -0.84375,0.15625 0.411892,-0.134799 0.673306,-0.166445 0.84375,-0.15625 z m 1.0625,0 c 0.873982,0.0053 -0.648332,0.828884 -0.53125,0.0625 0.234518,-0.03929 0.406395,-0.06325 0.53125,-0.0625 z m 13.3125,0.21875 c 0.682011,0.05002 -0.467781,0.741223 0,0 z m 5.5625,0 c 0.407486,-0.06603 2.328686,1.180573 0.84375,0.96875 -1.582772,0.978558 -1.422269,-0.200819 -0.90625,-0.84375 -0.01712,-0.07178 0.0043,-0.115568 0.0625,-0.125 z m 3.4375,0 c 0.59099,-0.1038 -0.1038,0.590995 0,0 z m 6.875,0.03125 c 0.461466,0.350084 -0.459048,0.376508 0,0 z m -14.0625,0.09375 c 1.787206,-0.0838 -0.903026,0.859938 0,0 z M 39,43.59375 c 2.040737,0.207864 0.181635,0.655536 0,0 z M 72.75,43.625 c 1.362225,-0.07099 1.267771,0.293365 0,0 z m -9.375,0.15625 c 0.318655,0.04449 -0.18225,0.763069 -0.1875,0.03125 0.08296,-0.02721 0.141978,-0.03761 0.1875,-0.03125 z M 53.03125,43.8125 c 0.169469,-0.0217 0.325887,0.04382 0.46875,0.28125 2.586805,1.908331 0.09642,0.897744 -1.25,0.1875 0.218648,-0.144379 0.498802,-0.432579 0.78125,-0.46875 z m -11.0625,0.03125 c 0.03997,-0.01 0.114579,-0.01564 0.1875,0 0.486144,0.104249 1.562587,0.693065 1.5625,0.5 1.257325,-0.05944 -2.548039,2.358455 -1.4375,0.09375 -0.364903,-0.410407 -0.432394,-0.563806 -0.3125,-0.59375 z M 20.15625,43.875 c 0.535718,0.22517 -0.345704,0.507377 0,0 z M 55.25,43.90625 c 0.264349,0.05537 -0.247075,0.548373 -0.15625,0.03125 0.07387,-0.01298 0.118486,-0.03916 0.15625,-0.03125 z M 39.78125,44.125 c 0.285017,0.02571 -0.171203,0.557106 -0.1875,0.03125 0.07359,-0.02119 0.146783,-0.03492 0.1875,-0.03125 z m 8.78125,0.03125 c 0.340451,0.496011 -0.581828,0.170488 0,0 z M 60.125,44.25 c 0.314173,0.03387 -0.171181,0.611979 -0.1875,0.03125 0.0812,-0.02197 0.142618,-0.03609 0.1875,-0.03125 z m -10.6875,0.1875 c 1.923999,0.104838 -0.812799,1.351716 0,0 z m -4.8125,0.09375 c 1.841114,0.322716 2.674841,7.027929 0.25,2.125 -0.138561,-0.881139 -0.614451,1.477699 -1.125,2.46875 -2.234601,0.699128 -0.381118,-1.622241 -0.90625,-2.40625 0.125499,-2.527066 2.984115,0.324823 1.78125,-2.1875 z M 46,44.625 c 0.628694,-0.134591 -0.104538,0.743044 0,0 z m 21.375,0.03125 c 0.48757,-0.06405 -0.122522,1.797104 -0.28125,0.15625 0.118943,-0.103796 0.211597,-0.147101 0.28125,-0.15625 z M 64.03125,44.875 c 1.816766,0.09056 0.146714,1.376225 0,0 z M 61.875,44.96875 c 0.809608,-0.123768 -1.095083,3.04894 -1.5,0.875 l 0.46875,-0.15625 c 0.528392,-0.485749 0.844417,-0.690188 1.03125,-0.71875 z M 43.5,45 c 0.687364,-0.102525 -0.357985,0.744691 0,0 z m 16.90625,0 c 0.782,0.217866 -0.571422,0.66704 0,0 z m 3.53125,0.5 c 0.852987,0.649136 -0.810519,0.871275 0,0 z m 3.9375,0.15625 c 0.982305,0.24829 -0.33935,0.637014 0,0 z m -26.15625,0.0625 c 1.186044,0.02026 -0.04762,2.73077 0,0 z m 7.5,0.03125 c 2.37406,0.07876 0.743465,1.53789 0,0 z m 13.8125,0.09375 c 0.456488,-0.111867 0.62812,0.743551 0.0625,0.625 1.513353,0.18116 0.706634,1.946605 -0.375,0 0.1141,-0.005 0.216364,-0.0085 0.3125,0 -0.119036,-0.03876 -0.260241,-0.08928 -0.4375,-0.21875 0.163183,-0.236656 0.307828,-0.374473 0.4375,-0.40625 z M 40.4375,46 c 1.558225,1.830633 -0.146178,2.899853 -2,0.6875 1.457272,1.50649 1.527801,-0.595088 2,-0.6875 z m 23.9375,0.125 c 1.852311,0.176756 -0.588286,1.748545 0,0 z m -35.34375,0.40625 c 0.59099,-0.103812 -0.1038,0.590994 0,0 z m 39.40625,0 c 0.434447,0.390353 -0.492756,0.33981 0,0 z M 36.34375,46.5625 c 1.703419,0.234163 1.446913,1.034394 0,0 z m -9.375,0.125 c 2.345132,2.05877 -1.321464,2.976247 0,0 z M 29.625,46.75 c 1.86714,0.138565 0.586129,1.488675 0,0 z m 18.75,0 c 0.264351,0.05536 -0.247075,0.548372 -0.15625,0.03125 0.07387,-0.01298 0.118486,-0.03916 0.15625,-0.03125 z m 2.59375,0.15625 c 0.760331,-0.02346 1.987027,1.996982 2.6875,2.40625 0.215562,2.466994 -1.586741,-1.780381 -2.71875,1.09375 -0.426269,-2.024992 -2.678172,0.852351 -2.46875,-0.21875 -0.0339,-1.07337 5.777814,-1.858537 1.9375,-2.4375 0.110973,-0.59121 0.309056,-0.835931 0.5625,-0.84375 z M 53.4375,47 c 1.294674,0.239566 0.495273,0.954644 0.03125,0.9375 0.06764,0.0084 0.04794,0.207537 -0.28125,0.78125 -0.212909,-0.270129 0.168526,-0.795184 0.28125,-0.78125 C 53.207404,47.927844 53.053369,47.676948 53.4375,47 z m 15.90625,0 c 0.07667,-0.01143 0.154382,-0.01104 0.21875,0 0.429118,0.0736 0.48857,0.571164 -0.9375,0.53125 C 68.848554,47.182742 69.113732,47.034295 69.34375,47 z M 33.375,47.28125 c 2.241424,0.175339 0.50714,0.940326 0,0 z m 4.40625,0.15625 c 0.314174,0.03387 -0.171181,0.611978 -0.1875,0.03125 0.0812,-0.02197 0.142618,-0.03609 0.1875,-0.03125 z m 42.3125,0.03125 c 0.847996,0.490997 -0.313104,3.406449 0,0 z M 49.125,47.6875 c 0.518745,0.03037 1.062819,0.50249 -0.4375,0.15625 0.0887,-0.138357 0.264585,-0.166375 0.4375,-0.15625 z m 11.875,0 c 0.358407,9.8e-5 -0.213225,0.624454 -0.1875,0.03125 C 60.90749,47.6873 60.948799,47.687486 61,47.6875 z M 33.5625,47.75 c 0.953746,1.406599 -5.036965,0.2547 -1.09375,0.375 L 33.1875,47.8125 z M 65.75,47.84375 c 0.590991,-0.103813 -0.1038,0.590995 0,0 z M 48.5,48 c 0.504264,0.103503 -1.279439,1.585467 -0.375,0.0625 0.179717,-0.05377 0.302962,-0.07729 0.375,-0.0625 z m 27.84375,0.09375 c 0.675894,-0.01789 -0.07887,0.643265 0,0 z m -40.03125,0.0625 c 0.571623,-0.01893 0.959888,0.17703 1.34375,0.8125 1.380024,-2.051694 5.214217,4.263149 2.65625,2.03125 -2.271039,-2.26228 -1.565655,1.971707 -2.28125,4.5 1.643198,-1.27732 1.274398,0.318925 2,1.1875 -2.18909,-1.424482 0.03172,3.461464 -1.875,2.625 -0.184384,0.07552 -0.354395,0.122339 -0.5,0.15625 0.574612,1.778717 1.733681,2.516757 0.03125,3.21875 -1.67069,-0.446574 -2.76181,-3.346721 -0.6875,-2 l 0.34375,-0.625 0.25,-0.5625 c -1.906852,0.3777 -0.53869,-2.756598 -2.90625,-2.0625 -0.90689,-0.440312 -1.565665,-0.73993 -3.03125,0.1875 2.139162,0.40033 0.366012,3.525469 0.3125,1.34375 -2.284701,-2.049496 0.281656,-4.124263 0,-5.90625 -1.735749,0.706958 -1.89505,-3.40135 -4.3125,-1.71875 -0.522526,2.201278 -3.009488,-2.515296 -0.34375,-2.15625 -0.471872,-1.434919 2.343345,1.796996 1.21875,-0.84375 2.111471,0.15375 5.661471,0.634187 6.53125,0.03125 0.500209,-0.130795 0.907026,-0.207389 1.25,-0.21875 z M 37.59375,59.5 c 0.02272,-0.0045 0.03884,-0.02574 0.0625,-0.03125 -0.0076,-0.02358 -0.02386,-0.03855 -0.03125,-0.0625 z M 39.9375,48.15625 c 0.767681,-0.0012 -0.350036,0.668197 0,0 z m 35.875,0.28125 c 1.087712,1.032913 -0.32765,1.135925 0,0 z m 1.15625,0 c 0.452474,-0.08557 -0.638295,0.988622 -0.3125,0.125 0.135484,-0.06818 0.247861,-0.112775 0.3125,-0.125 z M 40.3125,48.5 c 2.009661,0.948484 0.66244,2.17839 0,0 z m 5.03125,0 0.5625,0.03125 c 2.103887,1.82791 -1.063035,3.11824 -0.5625,-0.03125 z m 8.4375,0.28125 c 0.590987,-0.103813 -0.1038,0.590992 0,0 z m 6.1875,0.1875 c 0.05465,-0.02124 0.10125,0.187881 0.09375,0.84375 -0.274605,-0.15237 -0.184831,-0.808347 -0.09375,-0.84375 z m -15.6875,0.1875 c 0.40561,0.350915 -0.611838,0.245949 0,0 z M 44.625,49.1875 c 0.618964,0.506011 -0.01378,1.658311 0.96875,1.84375 2.384079,1.505104 -0.258057,0.379655 0.75,2.6875 -1.052685,-1.822093 -1.01545,-0.434922 -1.71875,-1.0625 -2.26977,-0.27191 -1.064102,-4.093481 -0.6875,-1.4375 3.011561,0.847627 -0.269901,0.09786 0.6875,-2.03125 z m 18.78125,0.25 c 0.03269,0.0439 -0.198367,0.267159 -0.75,0.53125 0.420881,-0.439706 0.717312,-0.575154 0.75,-0.53125 z m 12.75,0.0625 c 0.484705,0.361096 -0.483734,0.37091 0,0 z M 55.75,49.625 c 0.05597,-0.01295 0.115992,-0.014 0.1875,0 0.721953,2.117636 -0.04921,1.105995 -1,0.90625 0.367025,-0.160168 0.420675,-0.815612 0.8125,-0.90625 z m 0.4375,0 c 1.016131,0.805956 -0.385603,0.694272 0,0 z m -14.625,0.15625 c 0.641875,0.461918 0.0046,1.246656 0,0 z m 17.21875,0.03125 c 0.301184,-0.08285 0.06183,0.609675 -0.15625,0.09375 0.0671,-0.04902 0.113224,-0.08191 0.15625,-0.09375 z m -4.3125,0.03125 c 1.199754,-0.173857 -0.07884,1.249693 -0.6875,0.1875 0.281109,-0.101777 0.516107,-0.162663 0.6875,-0.1875 z m 9.3125,0 c 1.748449,0.918781 -1.488795,4.489604 0,0 z m 11.0625,0.1875 c 0.467944,-0.119244 -0.150769,1.883753 -0.28125,0.1875 0.115315,-0.121155 0.214401,-0.170465 0.28125,-0.1875 z m -14.3125,0.03125 c 0.674788,0.06188 -0.409051,0.674112 0,0 z M 78,50.34375 c 0.675884,-0.0179 -0.07887,0.643269 0,0 z M 58.75,50.375 c 0.551554,-0.150731 0.03106,1.280279 -0.3125,0.1875 0.12585,-0.09736 0.233707,-0.165967 0.3125,-0.1875 z m 2.3125,0.03125 c 1.104087,0.03211 -0.0623,0.637719 -0.25,0.46875 0.156596,0.08769 -0.17793,0.519606 -0.21875,0.03125 0.113411,-0.03832 0.179601,-0.05317 0.21875,-0.03125 -0.06257,-0.05632 -0.0297,-0.1862 0.25,-0.46875 z m -6.40625,0.125 c 0.370187,4.48e-4 -0.119842,0.609943 -0.21875,0.03125 0.09145,-0.03059 0.165866,-0.03131 0.21875,-0.03125 z m 7.5,0.03125 c 0.665938,0.0335 1.339636,1.424127 0.28125,1.0625 2.030715,0.824016 0.144613,0.511183 0.46875,2.25 -1.558757,1.167915 -1.534134,-1.282775 -2.5,-1.03125 -2.843152,0.133395 2.860591,-1.923131 1.125,-1.625 0.162384,-0.500411 0.382841,-0.668432 0.625,-0.65625 z m 15.125,0.0625 c 0.269449,-0.04203 0.156917,0.628832 -0.40625,0.34375 0.166194,-0.2331 0.316434,-0.32974 0.40625,-0.34375 z M 60.125,50.65625 c 0.283341,0.02791 -0.135666,0.546131 -0.15625,0.03125 0.07292,-0.02003 0.115773,-0.03524 0.15625,-0.03125 z m 15.90625,0 c 0.639713,0.241519 -0.28976,0.599312 0,0 z m -17.71875,0.0625 c 1.511476,1.163064 -0.444419,1.595995 0,0 z m -6.59375,0.0625 c 0.283338,0.02791 -0.135644,0.546128 -0.15625,0.03125 0.07292,-0.02003 0.115773,-0.03524 0.15625,-0.03125 z m 5.5,0 c 0.759216,-0.0105 -0.355804,0.550368 0,0 z m 20.71875,0 c 0.609709,0.394275 -0.797749,0.556799 0,0 z m -28.3125,0.125 c 0.590991,-0.103813 -0.1038,0.590995 0,0 z m 7.21875,0.0625 c 0.610556,0.0511 -0.191751,0.567031 0,0 z m 7.9375,0.0625 c 0.579167,0.180654 -0.339318,0.486645 0,0 z m 10.0625,0 c 1.476683,0.481156 1.222161,0.98507 0,0 z m 2,0.09375 c 0.795583,1.738899 -1.533674,1.274256 0,0 z M 50,51.21875 c 0.510885,-0.0088 1.027705,-4.75e-4 1.53125,0.09375 2.127738,1.483619 -1.535,0.664484 -1.53125,-0.09375 z M 46.71875,51.25 c 0.26435,0.05536 -0.247075,0.548371 -0.15625,0.03125 0.07387,-0.01298 0.118486,-0.03916 0.15625,-0.03125 z m 26.125,0.28125 c 0.5954,0.322439 -0.439202,0.353933 0,0 z M 73.3125,51.625 c 0.484709,0.361088 -0.483733,0.370918 0,0 z m -14.375,0.03125 0.15625,0.40625 0,0.40625 c -1.512636,1.989824 -0.901896,0.39476 -0.15625,-0.8125 z m 0.28125,0.125 c 0.66054,-0.07178 -0.30355,0.840902 0,0 z m -31.625,0.09375 c 0.269132,-0.03688 -0.03897,0.582387 -0.15625,0.0625 0.06408,-0.03722 0.117803,-0.05723 0.15625,-0.0625 z m 28.9375,0 c 0.598121,0.03099 -0.167485,0.577884 0,0 z m 21.375,0 c 0.471581,-0.02762 -0.623989,1.902269 -0.3125,0.125 0.139717,-0.101519 0.245131,-0.121055 0.3125,-0.125 z m -29.625,0.09375 c 0.633992,0.02035 -0.298868,0.6777 0,0 z m 18.96875,0.25 c 0.614186,-0.209017 -0.529957,1.259009 -0.375,0.21875 0.168662,-0.109798 0.287259,-0.18889 0.375,-0.21875 z m 8.59375,0 c 0.675889,-0.01787 -0.07887,0.643264 0,0 z m -23.5625,0.125 c 2.006135,0.167616 -1.723308,2.058629 0,0 z M 56.25,52.6875 c 1.37305,-0.205401 -0.394134,2.33101 0,0 z m -1.09375,0.03125 c 0.1104,0.03094 0.630091,1.939155 -0.40625,0.75 0.03081,0.396312 -1.499914,1.134286 -1.65625,-0.4375 L 53.6875,52.875 54.28125,52.75 C 53.287264,54.061659 54.746452,52.014254 55.25,53.5 55.120521,52.909988 55.11945,52.708437 55.15625,52.71875 z M 41.46875,52.75 c 0.643265,-0.07889 -0.01787,0.675905 0,0 z m 34.59375,0 c 0.93037,2.048579 -0.957395,1.307169 0,0 z m -10.09375,0.0625 c 0.725885,0.244886 -0.508463,0.596776 0,0 z m 4.375,0 c 0.590992,-0.103812 -0.1038,0.590992 0,0 z m -20.1875,0.09375 c 0.457555,0.01283 0.07449,1.076733 -0.1875,0.96875 -0.06701,0.530732 -1.59335,1.050948 -1.8125,-0.53125 0.939271,-0.04962 1.460977,0.07828 1.6875,0.25 -0.02892,-0.132365 -0.06116,-0.308505 -0.0625,-0.5625 0.166783,-0.100021 0.283489,-0.127566 0.375,-0.125 z m -0.3125,0.6875 c 0.03527,0.161456 0.06741,0.257515 0.125,0.28125 0.01294,-0.102464 -0.0086,-0.192977 -0.125,-0.28125 z m -7.125,-0.53125 c 1.558695,1.77077 -1.642263,1.218839 0,0 z m 17.625,0.125 c 0.06846,1.30293 -1.75747,0.04529 0,0 z m 5.46875,0.28125 c 1.180514,1.169397 -1.669648,2.094096 -0.53125,0.65625 z m -13.5,0.0625 c 0.282027,0.0262 -0.160353,0.554519 -0.1875,0.03125 0.07223,-0.02092 0.14721,-0.03499 0.1875,-0.03125 z m -30,0.3125 c 0.513124,0.01344 -0.118113,1.389773 -0.5625,0.25 0.255361,-0.190716 0.444087,-0.253101 0.5625,-0.25 z m 30.21875,0 c 1.43278,-0.1147 -1.324147,2.108441 0,0 z m -6,0.15625 c 0.491383,0.458989 -0.799071,0.334401 0,0 z m 14.9375,0.625 c 0.342375,0.01959 -0.260717,0.553448 -0.21875,0.03125 0.09166,-0.02259 0.169839,-0.03405 0.21875,-0.03125 z M 72,54.6875 c 2.941646,0.555356 1.862904,2.596949 -0.5,0.90625 -1.483181,-0.729866 1.824123,0.242731 0.5,-0.90625 z m -7.96875,0.1875 c 0.285123,0.08161 -0.222369,0.69336 -0.1875,0.03125 0.07633,-0.01381 0.146768,-0.04291 0.1875,-0.03125 z m -1.9375,0.15625 c 0.477307,0.0567 -0.41633,0.86341 -0.3125,0.03125 0.130194,-0.02934 0.244313,-0.03935 0.3125,-0.03125 z m -5.75,0.0625 c 0.497469,0.07217 0.09024,1.466009 -0.28125,0.0625 0.110235,-0.05562 0.210183,-0.07281 0.28125,-0.0625 z m -8.03125,0.0625 c 0.67767,0.05956 -0.489039,0.734429 0,0 z M 69,55.1875 c 0.769001,0.954941 0.345698,1.275213 0,0 z m 1.40625,0.0625 c 0.26873,0.02245 -0.173444,0.55229 -0.15625,0.03125 0.07111,-0.02178 0.11786,-0.03446 0.15625,-0.03125 z m -47.0625,0.03125 c 0.590994,-0.103812 -0.1038,0.590996 0,0 z m 52.25,0.21875 c 0.321849,0.01114 -0.06185,0.58525 -0.1875,0.03125 0.07741,-0.02649 0.141522,-0.03284 0.1875,-0.03125 z M 62.5625,55.5625 c 2.828603,-0.182804 -0.406329,2.077969 0,0 z m -1.90625,0.0625 c 0.266833,0.105305 0.213958,0.244606 0.09375,0.3125 0.185441,1.267057 0.0872,1.492299 0.03125,0.71875 -0.128151,0.406011 -2.527258,1.378836 -1.46875,-0.40625 0.01652,0.754021 0.89747,-0.336581 0.625,0.3125 0.62228,-0.105143 0.847222,-0.05331 0.84375,0.0625 -0.013,-0.188399 -0.02813,-0.380996 -0.03125,-0.6875 -0.200346,0.113157 -0.598443,0.07415 -0.09375,-0.3125 z M 49.1875,55.78125 c 0.265572,0.03979 -0.218353,0.729604 -0.15625,0.03125 0.07267,-0.02666 0.118311,-0.03693 0.15625,-0.03125 z M 68.9375,56 c 0.590991,-0.103812 -0.1038,0.590995 0,0 z m 2.34375,0.0625 c 0.548824,-0.174248 -0.04593,1.270395 -0.3125,0.1875 0.129222,-0.102978 0.234097,-0.162607 0.3125,-0.1875 z M 40.75,56.125 c 0.579166,0.180653 -0.339314,0.486648 0,0 z m 29.8125,0.03125 0.25,0.5 c 0.654052,0.324923 0.910934,0.5049 0.96875,0.5625 -0.177414,-7.8e-5 -1.268041,-0.352242 -1.75,-0.3125 z m -5.28125,0.0625 c 1.50212,0.283504 -0.502884,0.650953 0,0 z M 74.625,56.625 c 0.943363,-0.11715 -0.08839,0.787115 0,0 z m -49.46875,0.15625 c 1.77388,0.07814 1.402006,2.414066 0,0 z m 38.21875,0.0625 c 0.466899,-0.08778 0.154844,0.593903 -0.71875,0.40625 0.344713,-0.260303 0.563117,-0.37699 0.71875,-0.40625 z m -15.25,0.0625 c 0.705624,-0.05927 -0.09071,0.87592 0,0 z m 7.28125,0.03125 c 0.53107,-0.07276 0.328478,0.501362 -0.78125,0.34375 0.327608,-0.216921 0.604227,-0.319495 0.78125,-0.34375 z M 68.5,56.96875 c 0.45442,0.05117 0.734186,1.492873 -0.34375,0.25 0.106392,-0.184257 0.238884,-0.261808 0.34375,-0.25 z m 4.5,0 c 0.211271,0.02112 0.13446,0.118079 -0.84375,0.25 0.133126,-0.216409 0.632479,-0.271122 0.84375,-0.25 z m 1.875,0.15625 c 0.70098,0.143226 -0.11915,0.717696 0,0 z m 2.09375,0.125 c 0.314168,0.03387 -0.171159,0.611978 -0.1875,0.03125 0.0812,-0.02197 0.142619,-0.03609 0.1875,-0.03125 z M 60.5625,57.4375 c 0.740797,-0.04489 -2.54995,2.644852 -0.59375,0.21875 0.297313,-0.140458 0.487922,-0.212337 0.59375,-0.21875 z M 19.1875,57.5 c 0.522897,0.413132 -0.492069,0.448597 0,0 z m 42.03125,0 c 0.996112,0.502545 -2.155216,1.538869 0,0 z M 22.875,57.84375 c 0.413843,-0.128082 1.121137,0.687623 -0.15625,0.125 0.04033,-0.06331 0.09713,-0.106703 0.15625,-0.125 z m 11.59375,0 c 0.523568,-0.02925 -0.569883,1.347185 -0.34375,0.09375 0.148768,-0.07415 0.268955,-0.08957 0.34375,-0.09375 z M 76.9375,57.875 c 0.508697,-0.0083 0.19921,0.804323 -0.25,0.0625 0.109049,-0.04152 0.177329,-0.06132 0.25,-0.0625 z m -18.46875,0.09375 c 0.403343,0.01794 0.585535,1.837248 -0.4375,0.75 0.148701,-0.572134 0.303052,-0.75598 0.4375,-0.75 z m 11.09375,0 c 0.728939,0.06169 -0.0517,0.737434 0,0 z M 72.25,58.0625 c 0.600988,0.0186 -0.169504,0.588725 0,0 z m -53.75,0.125 c 0.01531,0.02332 -0.276623,0.233035 -0.90625,0.53125 C 18.162153,58.327266 18.484694,58.164183 18.5,58.1875 z M 61.96875,58.25 c 0.111417,-0.0522 0.259759,0.119491 0.25,0.8125 -0.562052,-0.0099 -0.435694,-0.725505 -0.25,-0.8125 z m 6.125,0.03125 c 0.31923,0.577532 -0.898481,0.139536 0,0 z m -33.53125,0.3125 c 0.283339,0.02791 -0.135655,0.54613 -0.15625,0.03125 0.07292,-0.02003 0.115773,-0.03524 0.15625,-0.03125 z M 54.71875,58.6875 55.3125,59 l 0.09375,0.03125 c -0.933727,0.04628 0.48848,1.33207 0.25,1.375 -0.807983,1.560712 -0.59512,-0.41279 -0.9375,-1.71875 z M 70.375,58.78125 c 0.709671,-0.01509 -0.15513,0.887754 0,0 z m -12.46875,0.125 c 0.932496,0.0994 0.20641,1.333771 -0.53125,0.03125 0.20445,-0.04315 0.398036,-0.04545 0.53125,-0.03125 z m -23.3125,0.0625 c 0.814539,-0.04719 -0.22983,0.606349 0,0 z m 4.71875,0.21875 c 0.279209,0.0068 0.35139,0.971848 -0.3125,0.40625 0.127544,-0.302137 0.21943,-0.408517 0.3125,-0.40625 z m 30.8125,0.15625 c 0.484706,0.36109 -0.483731,0.370915 0,0 z m -25.09375,0.0625 c 0.555222,0.112858 -0.618504,1.622671 -0.34375,0.0625 0.159616,-0.0533 0.264433,-0.07862 0.34375,-0.0625 z M 28.6875,59.6875 c 0.69833,0.09054 -0.320199,0.461909 0,0 z m 29.15625,0 c 0.193897,-0.0966 0.21021,0.382574 -0.4375,0.90625 0.143101,-0.577784 0.321162,-0.848291 0.4375,-0.90625 z m 12.40625,0 c 1.341575,-0.07282 0.125146,1.768684 0,0 z m -21.625,0.125 0.09375,0.53125 c 0.690989,0.403648 -0.52116,1.493628 -0.09375,-0.53125 z m -29.78125,0.28125 c 0.661297,-0.05072 -0.278633,0.81315 0,0 z m 14.0625,0 c 0.39859,0.05739 0.264667,0.767929 -1.125,0.875 0.440791,-0.710611 0.885846,-0.909437 1.125,-0.875 z m 9.03125,0.0625 c 3.416724,0.848148 2.855472,1.375473 0.96875,2.5 1.470957,-1.325816 -1.2739,-1.765136 -0.96875,-2.5 z m 28.78125,0.40625 c 0.457473,0.47174 -0.763526,0.471436 0,0 z m -13.875,0.0625 c 0.433591,-0.09455 0.998332,0.150116 -0.3125,0.21875 0.04259,-0.129967 0.16797,-0.187232 0.3125,-0.21875 z m -37.25,0.03125 c 0.30181,0.08576 -0.274333,1.149358 -0.625,0.34375 0.341736,-0.2951 0.524397,-0.372336 0.625,-0.34375 z m 31.8125,0.03125 c 0.280416,0.01681 -0.142853,0.565388 -0.1875,0.03125 0.07088,-0.02395 0.147441,-0.03365 0.1875,-0.03125 z M 47.5,60.75 c 0.434445,0.390351 -0.492754,0.339811 0,0 z m 3.15625,0.15625 c 0.20528,0.0014 0.132841,0.08693 -0.84375,0.25 0.15547,-0.168497 0.63847,-0.251356 0.84375,-0.25 z M 44.75,61.0625 c 1.281996,0.04767 -0.477962,0.939217 0.21875,1.5 -2.068714,-0.322143 0.339419,0.02995 -0.21875,-1.5 z m 4.375,0.25 c 0.191142,0.0669 -0.272495,1.957435 -0.4375,0.71875 0.248138,-0.569223 0.373786,-0.74105 0.4375,-0.71875 z m 1.40625,0.3125 c 1.418308,0.602244 0.652039,1.184751 0,0 z M 49.75,61.71875 c 0.461465,0.350079 -0.459044,0.376508 0,0 z m -18.71875,0.25 c 0.39978,0.08241 -0.220499,0.817439 -0.78125,0.21875 0.399192,-0.186095 0.64799,-0.246221 0.78125,-0.21875 z m 18.78125,0.0625 c 0.840306,-0.0043 -0.780872,1.106702 -0.5,0.0625 0.234412,-0.05653 0.379956,-0.06188 0.5,-0.0625 z M 51.375,62.375 c 0.283337,0.02791 -0.135655,0.546127 -0.15625,0.03125 0.07292,-0.02003 0.115773,-0.03524 0.15625,-0.03125 z m -4.8125,0.09375 c 0.640216,0.09157 -0.373661,0.831443 0,0 z m 0.375,0.1875 c 0.598121,0.03099 -0.167485,0.577883 0,0 z m 2.46875,0 c 0.588453,0.02354 -0.160254,0.583377 0,0 z M 44.875,62.6875 c 1.990731,0.346269 -0.759169,1.243379 0,0 z M 20.53125,62.75 c 0.663702,0.01865 -0.17574,0.649634 0,0 z m 31,0.1875 c 0.4776,0.218986 -0.449581,0.495567 0,0 z M 29.75,63.09375 c 0.682014,0.05002 -0.467784,0.741224 0,0 z M 24.5625,63.125 c 0.352455,0.01503 0.673262,1.006116 -0.3125,0.40625 0.07894,-0.306547 0.195015,-0.411259 0.3125,-0.40625 z m 0.78125,0 c 0.821902,-0.162279 0.372699,1.675577 -0.4375,0.21875 0.171711,-0.119692 0.320085,-0.195567 0.4375,-0.21875 z m 2.5625,0.03125 0.3125,0.53125 c -0.493765,0.106488 -1.002093,0.146319 -0.3125,-0.53125 z M 27.375,63.1875 c 0.509544,-0.04079 0.136757,0.513392 -0.8125,0.28125 0.378491,-0.201482 0.642652,-0.267654 0.8125,-0.28125 z m 1.9375,0.15625 c 0.282024,0.0262 -0.129092,0.554518 -0.15625,0.03125 0.07223,-0.02092 0.115961,-0.03499 0.15625,-0.03125 z m 21.90625,0.21875 c 1.452459,0.02759 -0.852639,1.427861 0,0 z m -5.25,0.1875 c 0.588448,0.02355 -0.160254,0.583371 0,0 z m -20.125,0.375 c 0.886082,0.0022 -0.513094,1.373018 -0.53125,0.09375 0.230503,-0.06732 0.404667,-0.09406 0.53125,-0.09375 z m -2.15625,0.09375 c 0.734629,1.007243 -0.555538,1.566695 0,0 z m 29.15625,0.25 c 0.309388,-0.02888 -0.200745,0.533623 -0.1875,0.0625 0.08152,-0.03254 0.143302,-0.05837 0.1875,-0.0625 z m -28.1875,0.09375 c 0.461464,0.350085 -0.459045,0.376505 0,0 z m 0.46875,0 c 0.506388,0.506006 -0.805686,0.47086 0,0 z m 26.28125,0.03125 c 0.955985,-0.06303 1.085299,0.753628 -0.46875,0.09375 0.167267,-0.05148 0.332181,-0.08474 0.46875,-0.09375 z m -22.375,0.34375 c 0.643263,-0.07889 -0.01788,0.675904 0,0 z m 0.28125,0.46875 c 0.658176,0.176045 -0.194122,0.960515 0,0 z m 10.71875,0 c 1.077881,0.001 0.251815,1.638379 0,0 z m 1.125,0.15625 c 0.859242,-0.02285 -0.535014,2.092515 -0.21875,0.03125 0.07834,-0.02244 0.161467,-0.02973 0.21875,-0.03125 z M 39.8125,65.75 c 0.588439,0.02353 -0.160227,0.583383 0,0 z m 13,0.125 c 0.326391,-0.06826 0.573451,0.217962 0.75,0.5 -0.969371,1.389214 -0.08574,-0.937636 -1.6875,0.65625 0.32912,-0.775774 0.663492,-1.098944 0.9375,-1.15625 z M 50.78125,66 c 0.943613,0.529739 -0.966924,0.946381 0,0 z M 38.25,66.09375 c 1.60728,0.447389 -0.691594,0.993759 0,0 z m 18.625,0.125 c 0.400656,-0.01412 0.291375,1.341373 -0.5625,0.59375 0.237856,-0.440408 0.428948,-0.589042 0.5625,-0.59375 z m -6.6875,0.3125 c 1.179957,0.50055 -1.756445,1.192809 -0.15625,0.03125 z m 0.84375,0.15625 c 2.289175,-0.03866 -0.973314,1.121636 0,0 z m 5.125,0.21875 c 0.680822,0.430517 -0.486013,0.43323 0,0 z m 0.5,0.25 c 0.789233,-0.142271 -0.01125,0.637426 0,0 z M 41.25,67.28125 c 0.51621,0.06516 1.669371,2.232987 0.78125,0.46875 1.583748,0.95851 -0.363651,0.911411 -1,0.28125 -0.03708,-0.451666 0.02176,-0.659689 0.125,-0.71875 0.02796,-0.016 0.05934,-0.03559 0.09375,-0.03125 z m 3.53125,0.09375 c 0.590988,-0.103813 -0.1038,0.590994 0,0 z m 11.6875,0.34375 c 0.283338,0.02791 -0.135655,0.54613 -0.15625,0.03125 0.07292,-0.02003 0.115773,-0.03524 0.15625,-0.03125 z M 26.5625,68.0625 c 0.483864,-0.0665 0.791314,1.474324 -0.34375,0.375 0.115511,-0.235529 0.232089,-0.359654 0.34375,-0.375 z m 10.78125,0.125 c 0.745519,0.221963 -0.472411,0.553691 0,0 z M 56.0625,68.75 c 0.315834,-0.04691 0.0021,0.316713 -1.1875,0.625 0.572235,-0.416574 0.998,-0.596851 1.1875,-0.625 z m -14.6875,0.0625 0.4375,0.09375 c 2.660206,2.12696 -2.278824,1.117869 -0.4375,-0.09375 z m -5.625,0.28125 c 1.524519,1.001254 0.315143,1.376515 0,0 z m 9.65625,0.0625 c 0.155619,1.686551 0.08534,0.804937 -0.6875,0.34375 z m 9.5,0.125 c 0.01632,0.04156 -0.277912,0.207259 -0.90625,0.40625 0.563049,-0.365211 0.889928,-0.447805 0.90625,-0.40625 z m -10.78125,0.125 c 0.635754,0.09648 2.401064,2.956792 0.53125,1.53125 -2.82871,0.608245 -0.580063,-0.0034 -0.53125,-1.53125 z M 35.4375,69.75 c 0.663699,0.01866 -0.17574,0.649621 0,0 z m 1.40625,0.0625 c 0.335484,-0.03194 -0.213116,0.565444 -0.1875,0.03125 0.089,-0.03669 0.139574,-0.02669 0.1875,-0.03125 z M 40.375,70.03125 40.5625,70.75 c 3.151841,1.004226 -1.183804,1.280343 -0.1875,-0.71875 z m 7.4375,0.0625 c 0.282027,0.02619 -0.160353,0.554521 -0.1875,0.03125 0.07223,-0.02092 0.14721,-0.03499 0.1875,-0.03125 z m 0.90625,0.1875 c 0.422898,-0.185548 0.842845,2.124962 0.09375,0.3125 -0.645309,2.581035 -1.71602,-0.757209 -0.375,0.28125 0.08638,-0.391927 0.183658,-0.550931 0.28125,-0.59375 z m 4.46875,0.3125 c 0.663683,0.01866 -0.175725,0.649621 0,0 z M 37.25,70.8125 c 0.32497,-0.09533 0.428903,0.276263 -0.625,0.75 0.160065,-0.461648 0.430018,-0.692799 0.625,-0.75 z M 51.03125,71.25 c 0.31417,0.03387 -0.17117,0.611979 -0.1875,0.03125 0.0812,-0.02197 0.142619,-0.03609 0.1875,-0.03125 z m -0.375,0.71875 c 0.31417,0.03387 -0.171159,0.611975 -0.1875,0.03125 0.0812,-0.02197 0.142619,-0.03609 0.1875,-0.03125 z m -6,0.09375 c 0.314174,0.03387 -0.171181,0.61198 -0.1875,0.03125 0.0812,-0.02196 0.142618,-0.03609 0.1875,-0.03125 z m 4.15625,0.375 c 0.533241,-0.105534 0.750657,0.473797 -0.59375,0.375 0.201136,-0.242502 0.416003,-0.339822 0.59375,-0.375 z M 47.5,72.53125 c 0.578611,1.347401 0.165688,0.91852 -0.15625,1.125 l 0.0625,-0.5625 z M 45.125,73.75 c 0.59099,-0.103813 -0.1038,0.590994 0,0 z m -0.59375,0.09375 c 0.552707,0.09286 -0.368179,0.456945 0,0 z M 46.9375,74.25 c 0.722946,-0.159255 -0.140026,0.775158 0,0 z m -0.84375,0.34375 c 0.342627,0.05797 -0.313709,0.653619 -0.21875,0.03125 0.09454,-0.01788 0.169803,-0.03953 0.21875,-0.03125 z M 45.75,74.90625 c 0.359398,-0.02092 -0.233472,0.634951 -0.21875,0.03125 0.09466,-0.0375 0.167407,-0.02826 0.21875,-0.03125 z m -4.375,0.03125 c 0.528733,-0.02939 -0.22547,1.297734 -0.3125,0.125 0.1335,-0.0699 0.236967,-0.120801 0.3125,-0.125 z m 4.03125,0.25 c 0.533608,-0.0677 -0.232908,1.016375 -0.3125,0.09375 0.135168,-0.06664 0.23627,-0.08408 0.3125,-0.09375 z m -0.625,0.46875 c 0.69073,0.193331 -0.667212,0.768195 0,0 z M 45.625,75.8125 c 0.588436,0.02353 -0.160226,0.583381 0,0 z m -1.3125,1.46875 c 0.721674,-0.02521 -0.30129,0.63848 0,0 z M 44.625,77.625 c 1.906855,0.262336 0.835429,0.621612 -0.09375,0.5 z m 1.46875,0 c 0.643275,-0.07887 -0.0179,0.675903 0,0 z m -0.53125,0.78125 c 0.01302,0.04489 -0.267133,0.188181 -0.875,0.3125 0.555776,-0.303861 0.861977,-0.357386 0.875,-0.3125 z m -2.125,8.71875 c 0.283337,0.02791 -0.135655,0.546127 -0.15625,0.03125 0.07292,-0.02003 0.115773,-0.03524 0.15625,-0.03125 z m 0.375,0.4375 c 0.314168,0.03387 -0.171171,0.611977 -0.1875,0.03125 0.0812,-0.02197 0.142619,-0.03609 0.1875,-0.03125 z m -0.15625,3.15625 c 1.108081,0.480394 0.858085,1.429735 0,0 z m 1,0.28125 c 0.61727,-0.112225 -0.217358,0.736553 0,0 z" transform="scale(0.8,0.8)" fill="#BECCA3" stroke="#000000" stroke-width="0.01110026"></path></svg>
